<svg xmlns="http://www.w3.org/2000/svg" width="157" height="64" viewBox="0 0 157 64" fill="none">
  <path d="M62.4643 42.0758C60.4983 42.0758 58.7805 41.629 57.311 40.7353C55.8414 39.8417 54.6996 38.6005 53.8854 37.0118C53.0712 35.4033 52.6641 33.5366 52.6641 31.4117C52.6641 29.267 53.0811 27.3804 53.9152 25.752C54.7691 24.1037 55.9705 22.8228 57.5195 21.9093C59.0883 20.976 60.9451 20.5093 63.0899 20.5093C65.5325 20.5093 67.558 21.0951 69.1666 22.2668C70.7751 23.4384 71.8177 25.0569 72.2943 27.1222H68.0347C67.7169 26.1491 67.141 25.3945 66.307 24.8583C65.4729 24.3023 64.4005 24.0243 63.0899 24.0243C61.0047 24.0243 59.3961 24.6895 58.2642 26.0201C57.1323 27.3307 56.5663 29.1379 56.5663 31.4415C56.5663 33.7451 57.1223 35.5324 58.2344 36.8033C59.3664 38.0544 60.8955 38.6799 62.8218 38.6799C64.7083 38.6799 66.1282 38.1736 67.0814 37.1608C68.0545 36.1281 68.6403 34.7777 68.8389 33.1096H63.5665V30.25H72.6816V41.7183H69.1666L68.8687 38.9778C68.1935 39.9708 67.3495 40.7353 66.3367 41.2715C65.3239 41.8077 64.0331 42.0758 62.4643 42.0758Z" fill="#121212" fill-opacity="0.2"/>
  <path d="M74.8095 41.7183V20.271H78.6224V41.7183H74.8095Z" fill="#121212" fill-opacity="0.2"/>
  <path d="M88.1185 42.0758C86.6887 42.0758 85.3979 41.7481 84.246 41.0928C83.1141 40.4374 82.2105 39.5339 81.5353 38.3821C80.88 37.2104 80.5523 35.86 80.5523 34.3309C80.5523 32.8018 80.8899 31.4613 81.5651 30.3095C82.2403 29.1379 83.1439 28.2244 84.2758 27.569C85.4276 26.9137 86.7185 26.586 88.1483 26.586C89.5582 26.586 90.8292 26.9137 91.9611 27.569C93.1129 28.2244 94.0165 29.1379 94.6718 30.3095C95.347 31.4613 95.6846 32.8018 95.6846 34.3309C95.6846 35.86 95.347 37.2104 94.6718 38.3821C94.0165 39.5339 93.1129 40.4374 91.9611 41.0928C90.8093 41.7481 89.5285 42.0758 88.1185 42.0758ZM88.1185 38.7693C89.1114 38.7693 89.9753 38.4019 90.71 37.6672C91.4448 36.9125 91.8122 35.8004 91.8122 34.3309C91.8122 32.8614 91.4448 31.7592 90.71 31.0244C89.9753 30.2698 89.1213 29.8925 88.1483 29.8925C87.1355 29.8925 86.2617 30.2698 85.5269 31.0244C84.812 31.7592 84.4546 32.8614 84.4546 34.3309C84.4546 35.8004 84.812 36.9125 85.5269 37.6672C86.2617 38.4019 87.1256 38.7693 88.1185 38.7693Z" fill="#121212" fill-opacity="0.2"/>
  <path d="M103.711 42.0758C102.4 42.0758 101.248 41.8673 100.255 41.4502C99.2625 41.0133 98.4682 40.4176 97.8724 39.663C97.2767 38.9083 96.9192 38.0345 96.8001 37.0416H100.643C100.762 37.6175 101.08 38.114 101.596 38.531C102.132 38.9282 102.817 39.1268 103.651 39.1268C104.485 39.1268 105.091 38.958 105.468 38.6204C105.866 38.2828 106.064 37.8955 106.064 37.4586C106.064 36.8232 105.786 36.3962 105.23 36.1778C104.674 35.9395 103.9 35.7111 102.907 35.4926C102.271 35.3536 101.626 35.1848 100.97 34.9862C100.315 34.7877 99.7093 34.5394 99.1533 34.2415C98.6171 33.9238 98.1802 33.5266 97.8426 33.05C97.505 32.5536 97.3362 31.9479 97.3362 31.233C97.3362 29.9223 97.8526 28.8201 98.8852 27.9265C99.9377 27.0329 101.407 26.586 103.294 26.586C105.041 26.586 106.431 26.9931 107.464 27.8073C108.517 28.6216 109.142 29.7436 109.341 31.1734H105.736C105.518 30.0812 104.694 29.535 103.264 29.535C102.549 29.535 101.993 29.6741 101.596 29.9521C101.219 30.2301 101.03 30.5776 101.03 30.9947C101.03 31.4315 101.318 31.7791 101.894 32.0372C102.47 32.2954 103.234 32.5337 104.187 32.7521C105.22 32.9904 106.163 33.2585 107.017 33.5564C107.891 33.8344 108.586 34.2614 109.102 34.8373C109.619 35.3933 109.877 36.1976 109.877 37.2501C109.897 38.1636 109.659 38.9878 109.162 39.7225C108.666 40.4573 107.951 41.0332 107.017 41.4502C106.084 41.8673 104.982 42.0758 103.711 42.0758Z" fill="#121212" fill-opacity="0.2"/>
  <path d="M117.872 42.0758C116.561 42.0758 115.409 41.8673 114.416 41.4502C113.423 41.0133 112.629 40.4176 112.033 39.663C111.438 38.9083 111.08 38.0345 110.961 37.0416H114.804C114.923 37.6175 115.241 38.114 115.757 38.531C116.293 38.9282 116.978 39.1268 117.812 39.1268C118.646 39.1268 119.252 38.958 119.629 38.6204C120.026 38.2828 120.225 37.8955 120.225 37.4586C120.225 36.8232 119.947 36.3962 119.391 36.1778C118.835 35.9395 118.06 35.7111 117.068 35.4926C116.432 35.3536 115.787 35.1848 115.131 34.9862C114.476 34.7877 113.87 34.5394 113.314 34.2415C112.778 33.9238 112.341 33.5266 112.004 33.05C111.666 32.5536 111.497 31.9479 111.497 31.233C111.497 29.9223 112.013 28.8201 113.046 27.9265C114.099 27.0329 115.568 26.586 117.455 26.586C119.202 26.586 120.592 26.9931 121.625 27.8073C122.678 28.6216 123.303 29.7436 123.502 31.1734H119.897C119.679 30.0812 118.855 29.535 117.425 29.535C116.71 29.535 116.154 29.6741 115.757 29.9521C115.38 30.2301 115.191 30.5776 115.191 30.9947C115.191 31.4315 115.479 31.7791 116.055 32.0372C116.631 32.2954 117.395 32.5337 118.348 32.7521C119.381 32.9904 120.324 33.2585 121.178 33.5564C122.052 33.8344 122.747 34.2614 123.263 34.8373C123.78 35.3933 124.038 36.1976 124.038 37.2501C124.058 38.1636 123.819 38.9878 123.323 39.7225C122.827 40.4573 122.112 41.0332 121.178 41.4502C120.245 41.8673 119.143 42.0758 117.872 42.0758Z" fill="#121212" fill-opacity="0.2"/>
  <path d="M126.988 48.2717L130.413 40.7353H129.52L123.77 26.9435H127.911L132.052 37.3395L136.371 26.9435H140.422L131.039 48.2717H126.988Z" fill="#121212" fill-opacity="0.2"/>
  <path d="M24.5989 39.3322L39.6277 24.3034L37.1563 21.832L22.1275 36.8608L24.5989 39.3322Z" fill="#121212" fill-opacity="0.2"/>
  <path d="M30.5405 24.3034L24.5989 30.245L22.1275 27.7736L28.0691 21.832L30.5405 24.3034Z" fill="#121212" fill-opacity="0.2"/>
  <path d="M33.6861 39.3322L39.6277 33.3906L37.1563 30.9192L31.2147 36.8608L33.6861 39.3322Z" fill="#121212" fill-opacity="0.2"/>
  <path fill-rule="evenodd" clip-rule="evenodd" d="M16.373 45.0867V15.728H45.7317V45.0867H16.373ZM19.8681 19.2231H42.2366V41.5916H19.8681V19.2231Z" fill="#121212" fill-opacity="0.2"/>
</svg>