<svg xmlns="http://www.w3.org/2000/svg" width="160" height="64" viewBox="0 0 160 64" fill="none">
<path fill-rule="evenodd" clip-rule="evenodd" d="M48.7835 30.7841C49.4012 33.7308 49.1153 36.4717 48.117 38.7572L48.1696 38.7564C47.3139 41.0984 44.4674 45.9986 37.7657 47.4038C37.5107 47.4573 37.2561 47.4997 37.002 47.5315C36.3626 47.6255 35.6994 47.6741 35.0148 47.6741C27.078 47.6741 19.2743 41.1408 17.5848 33.0816C16.78 29.2427 17.5076 25.7501 19.3482 23.1448C20.2031 21.4992 24.6882 17.5082 28.3076 16.7327C28.4042 16.712 28.4971 16.6957 28.5865 16.6836C29.5443 16.45 30.5661 16.3267 31.6419 16.3267C39.435 16.3267 47.1096 22.7995 48.7835 30.7841ZM46.0542 30.1085C47.3683 36.3768 43.4717 41.4583 37.351 41.4583C31.2303 41.4583 25.2032 36.3768 23.8891 30.1085C22.575 23.8402 26.4716 18.7588 32.5923 18.7588C38.713 18.7588 44.7401 23.8402 46.0542 30.1085ZM36.981 37.9454C41.5113 37.9454 44.4142 34.2738 43.4647 29.7447C42.5152 25.2155 38.0729 21.5439 33.5426 21.5439C29.0122 21.5439 26.1093 25.2155 27.0588 29.7447C28.0083 34.2738 32.4506 37.9454 36.981 37.9454ZM41.015 29.4047C41.6106 32.246 39.7401 34.5492 36.8371 34.5492C33.9341 34.5492 31.098 32.246 30.5023 29.4047C29.9067 26.5635 31.7772 24.2603 34.6802 24.2603C37.5831 24.2603 40.4193 26.5635 41.015 29.4047ZM38.3535 29.4047C38.6475 30.807 37.7243 31.9437 36.2916 31.9437C34.8588 31.9437 33.4591 30.807 33.1651 29.4047C32.8711 28.0025 33.7943 26.8657 35.227 26.8657C36.6598 26.8657 38.0595 28.0025 38.3535 29.4047Z" fill="#121212" fill-opacity="0.2"/>
<path d="M69.7837 39.184C69.7837 39.3644 69.9299 39.5106 70.1102 39.5106H72.5924C72.7728 39.5106 72.919 39.3644 72.919 39.184V27.2627H70.1102C69.9299 27.2627 69.7837 27.4089 69.7837 27.5892V39.184Z" fill="#121212" fill-opacity="0.2"/>
<path d="M69.8847 25.3229C70.1854 25.6387 70.6441 25.7966 71.2606 25.7966C71.8771 25.7966 72.3282 25.6387 72.6139 25.3229C72.8996 24.9921 73.0425 24.5861 73.0425 24.1049C73.0425 23.5936 72.8996 23.1801 72.6139 22.8643C72.3282 22.5485 71.8771 22.3906 71.2606 22.3906C70.6441 22.3906 70.1854 22.5485 69.8847 22.8643C69.599 23.1801 69.4561 23.5936 69.4561 24.1049C69.4561 24.5861 69.599 24.9921 69.8847 25.3229Z" fill="#121212" fill-opacity="0.2"/>
<path fill-rule="evenodd" clip-rule="evenodd" d="M64.8415 33.7814C63.8791 34.2325 62.7062 34.458 61.3228 34.458H58.8416V39.184C58.8416 39.3644 58.6954 39.5106 58.5151 39.5106H55.9652C55.7849 39.5106 55.6387 39.3644 55.6387 39.184V23.2585C55.6387 23.0782 55.7849 22.932 55.9652 22.932H58.5151C58.5503 22.932 58.5843 22.9376 58.6161 22.9479C58.6478 22.9376 58.6818 22.932 58.717 22.932H61.3228C62.7062 22.932 63.8791 23.1575 64.8415 23.6086C65.8189 24.0598 66.5633 24.7064 67.0745 25.5485C67.5858 26.3755 67.8414 27.3604 67.8414 28.5033V28.8642C67.8414 30.007 67.5858 30.9995 67.0745 31.8416C66.5633 32.6686 65.8189 33.3152 64.8415 33.7814ZM63.2175 26.0898C62.7814 25.8342 62.24 25.7063 61.5934 25.7063H58.8416V31.6837H61.5934C62.24 31.6837 62.7814 31.5558 63.2175 31.3002C63.6686 31.0446 64.0069 30.6912 64.2325 30.2401C64.4731 29.789 64.5934 29.2702 64.5934 28.6837C64.5934 28.0973 64.4731 27.5785 64.2325 27.1274C64.0069 26.6763 63.6686 26.3304 63.2175 26.0898Z" fill="#121212" fill-opacity="0.2"/>
<path d="M75.7311 39.5106C75.5507 39.5106 75.4045 39.3644 75.4045 39.184V27.5892C75.4045 27.4089 75.5507 27.2627 75.7311 27.2627H77.5591C77.7395 27.2627 77.8857 27.4089 77.8857 27.5892V30.2809C77.9583 29.9668 78.0486 29.675 78.1563 29.4055C78.4872 28.5634 78.9759 27.9319 79.6225 27.5108C80.2841 27.0898 81.1037 26.8793 82.0811 26.8793H82.2164C83.675 26.8793 84.7803 27.3529 85.5321 28.3003C86.284 29.2326 86.6599 30.6311 86.6599 32.4957V39.184C86.6599 39.3644 86.5137 39.5106 86.3334 39.5106H83.8512C83.6709 39.5106 83.5247 39.3644 83.5247 39.184V32.225C83.5247 31.4731 83.3066 30.8641 82.8705 30.398C82.4495 29.9318 81.863 29.6987 81.1112 29.6987C80.3443 29.6987 79.7202 29.9393 79.239 30.4205C78.7729 30.8867 78.5398 31.5183 78.5398 32.3152V39.184C78.5398 39.3644 78.3936 39.5106 78.2133 39.5106H75.7311Z" fill="#121212" fill-opacity="0.2"/>
<path fill-rule="evenodd" clip-rule="evenodd" d="M98.3538 33.7814C97.3914 34.2325 96.2185 34.458 94.835 34.458H92.3539V39.184C92.3539 39.3644 92.2077 39.5106 92.0274 39.5106H89.4775C89.2971 39.5106 89.151 39.3644 89.151 39.184V23.2585C89.151 23.0782 89.2971 22.932 89.4775 22.932H92.0274C92.0626 22.932 92.0965 22.9376 92.1283 22.9479C92.1601 22.9376 92.1941 22.932 92.2293 22.932H94.835C96.2185 22.932 97.3914 23.1575 98.3538 23.6086C99.3312 24.0598 100.076 24.7064 100.587 25.5485C101.098 26.3755 101.354 27.3604 101.354 28.5033V28.8642C101.354 30.007 101.098 30.9995 100.587 31.8416C100.076 32.6686 99.3312 33.3152 98.3538 33.7814ZM96.7297 26.0898C96.2937 25.8342 95.7523 25.7063 95.1057 25.7063H92.3539V31.6837H95.1057C95.7523 31.6837 96.2937 31.5558 96.7297 31.3002C97.1809 31.0446 97.5192 30.6912 97.7448 30.2401C97.9854 29.789 98.1056 29.2702 98.1056 28.6837C98.1056 28.0973 97.9854 27.5785 97.7448 27.1274C97.5192 26.6763 97.1809 26.3304 96.7297 26.0898Z" fill="#121212" fill-opacity="0.2"/>
<path fill-rule="evenodd" clip-rule="evenodd" d="M108.332 39.9391C107.25 39.9391 106.295 39.7662 105.468 39.4203C104.641 39.0745 103.941 38.6083 103.37 38.0219C102.799 37.4204 102.362 36.7437 102.062 35.9918C101.776 35.24 101.633 34.458 101.633 33.646V33.1724C101.633 32.3303 101.784 31.5333 102.084 30.7814C102.4 30.0145 102.844 29.3378 103.415 28.7514C104.002 28.1499 104.708 27.6837 105.535 27.3529C106.362 27.0071 107.295 26.8341 108.332 26.8341C109.37 26.8341 110.302 27.0071 111.129 27.3529C111.956 27.6837 112.656 28.1499 113.227 28.7514C113.813 29.3378 114.257 30.0145 114.558 30.7814C114.858 31.5333 115.009 32.3303 115.009 33.1724V33.646C115.009 34.458 114.858 35.24 114.558 35.9918C114.272 36.7437 113.843 37.4204 113.272 38.0219C112.701 38.6083 112.001 39.0745 111.174 39.4203C110.347 39.7662 109.4 39.9391 108.332 39.9391ZM108.332 37.255C109.099 37.255 109.746 37.0896 110.272 36.7587C110.798 36.4129 111.197 35.9543 111.468 35.3828C111.738 34.7964 111.874 34.1347 111.874 33.3979C111.874 32.6461 111.731 31.9844 111.445 31.413C111.174 30.8265 110.768 30.3679 110.227 30.0371C109.701 29.6912 109.069 29.5183 108.332 29.5183C107.595 29.5183 106.956 29.6912 106.415 30.0371C105.889 30.3679 105.483 30.8265 105.197 31.413C104.911 31.9844 104.768 32.6461 104.768 33.3979C104.768 34.1347 104.904 34.7964 105.174 35.3828C105.46 35.9543 105.866 36.4129 106.392 36.7587C106.919 37.0896 107.565 37.255 108.332 37.255Z" fill="#121212" fill-opacity="0.2"/>
<path d="M117.213 39.184C117.213 39.3644 117.359 39.5106 117.539 39.5106H120.022C120.202 39.5106 120.348 39.3644 120.348 39.184V27.2627H117.539C117.359 27.2627 117.213 27.4089 117.213 27.5892V39.184Z" fill="#121212" fill-opacity="0.2"/>
<path d="M117.314 25.3229C117.615 25.6387 118.073 25.7966 118.69 25.7966C119.306 25.7966 119.757 25.6387 120.043 25.3229C120.329 24.9921 120.472 24.5861 120.472 24.1049C120.472 23.5936 120.329 23.1801 120.043 22.8643C119.757 22.5485 119.306 22.3906 118.69 22.3906C118.073 22.3906 117.615 22.5485 117.314 22.8643C117.028 23.1801 116.885 23.5936 116.885 24.1049C116.885 24.5861 117.028 24.9921 117.314 25.3229Z" fill="#121212" fill-opacity="0.2"/>
<path d="M123.16 39.5106C122.98 39.5106 122.834 39.3644 122.834 39.184V27.5892C122.834 27.4089 122.98 27.2627 123.16 27.2627H124.988C125.169 27.2627 125.315 27.4089 125.315 27.5892V30.2809C125.387 29.9668 125.478 29.675 125.585 29.4055C125.916 28.5634 126.405 27.9319 127.052 27.5108C127.713 27.0898 128.533 26.8793 129.51 26.8793H129.646C131.104 26.8793 132.209 27.3529 132.961 28.3003C133.713 29.2326 134.089 30.6311 134.089 32.4957V39.184C134.089 39.3644 133.943 39.5106 133.763 39.5106H131.28C131.1 39.5106 130.954 39.3644 130.954 39.184V32.225C130.954 31.4731 130.736 30.8641 130.3 30.398C129.879 29.9318 129.292 29.6987 128.54 29.6987C127.773 29.6987 127.149 29.9393 126.668 30.4205C126.202 30.8867 125.969 31.5183 125.969 32.3152V39.184C125.969 39.3644 125.823 39.5106 125.642 39.5106H123.16Z" fill="#121212" fill-opacity="0.2"/>
<path d="M138.858 39.2399C139.595 39.5256 140.527 39.6685 141.655 39.6685H143.088C143.268 39.6685 143.415 39.5223 143.415 39.3419V37.3108C143.415 37.1305 143.268 36.9843 143.088 36.9843H141.497C140.896 36.9843 140.43 36.8264 140.099 36.5106C139.783 36.1798 139.625 35.7137 139.625 35.1122L139.636 29.5634H143.088C143.268 29.5634 143.415 29.4172 143.415 29.2369V27.5892C143.415 27.4089 143.268 27.2627 143.088 27.2627H139.641L139.647 24.1388C139.647 23.9582 139.501 23.8116 139.32 23.8116H137.041C136.861 23.8116 136.715 23.9574 136.715 24.1375L136.708 27.2627H135.08C134.899 27.2627 134.753 27.4089 134.753 27.5892V29.2369C134.753 29.4172 134.899 29.5634 135.08 29.5634H136.704L136.693 34.9092C136.693 36.0971 136.873 37.0445 137.234 37.7512C137.595 38.4429 138.136 38.9392 138.858 39.2399Z" fill="#121212" fill-opacity="0.2"/>
</svg>