<svg xmlns="http://www.w3.org/2000/svg" width="151" height="64" viewBox="0 0 151 64" fill="none">
<path d="M54.6562 21.4725V17.3462H75.4168V21.4725H67.4032V45.8971H62.7529V21.4725H54.6562Z" fill="#121212" fill-opacity="0.2"/>
<path d="M88.1333 42.1459L89.2959 42.0208L89.379 45.3969C86.2234 46.036 83.4276 46.3555 80.9917 46.3555C77.9191 46.3555 75.7047 45.508 74.3483 43.8131C73.0196 42.1181 72.3553 39.4089 72.3553 35.6854C72.3553 28.2942 75.3587 24.5985 81.3654 24.5985C87.1784 24.5985 90.0848 27.7801 90.0848 34.1433L89.7942 37.3943H76.9226C76.9503 39.1171 77.324 40.3814 78.0437 41.1872C78.7634 41.993 80.1059 42.3959 82.0713 42.3959C84.0366 42.3959 86.0573 42.3126 88.1333 42.1459ZM85.6421 33.8932C85.6421 31.837 85.3099 30.406 84.6456 29.6001C84.0089 28.7665 82.9155 28.3497 81.3654 28.3497C79.8153 28.3497 78.6804 28.7804 77.9607 29.6418C77.2686 30.5032 76.9088 31.9203 76.8811 33.8932H85.6421Z" fill="#121212" fill-opacity="0.2"/>
<path d="M92.3607 45.8971V25.057H96.845V27.5578C99.1979 26.0295 101.551 25.0431 103.904 24.5985V29.1417C101.523 29.614 99.4885 30.2253 97.8 30.9756L96.8865 31.3507V45.8971H92.3607Z" fill="#121212" fill-opacity="0.2"/>
<path d="M105.287 45.8971V25.057H109.772V27.5578C112.125 26.0295 114.477 25.0431 116.83 24.5985V29.1417C114.45 29.614 112.415 30.2253 110.727 30.9756L109.813 31.3507V45.8971H105.287Z" fill="#121212" fill-opacity="0.2"/>
<path d="M133.577 31.4757V40.9788C133.605 41.5901 133.757 42.0486 134.034 42.3543C134.338 42.6321 134.795 42.8127 135.404 42.8961L135.279 46.3555C132.899 46.3555 131.058 45.8415 129.757 44.8134C127.543 45.8415 125.314 46.3555 123.072 46.3555C118.948 46.3555 116.885 44.1465 116.885 39.7284C116.885 37.6166 117.439 36.0883 118.546 35.1436C119.681 34.1988 121.411 33.6292 123.736 33.4347L129.093 32.9762V31.4757C129.093 30.3643 128.844 29.5862 128.345 29.1417C127.875 28.6971 127.169 28.4748 126.228 28.4748C124.456 28.4748 122.242 28.5859 119.584 28.8082L118.256 28.8916L118.09 25.6822C121.107 24.9598 123.875 24.5985 126.394 24.5985C128.94 24.5985 130.767 25.1543 131.875 26.2657C133.009 27.3494 133.577 29.0861 133.577 31.4757ZM124.276 36.6441C122.366 36.8108 121.411 37.8528 121.411 39.7701C121.411 41.6874 122.256 42.646 123.944 42.646C125.328 42.646 126.795 42.4237 128.345 41.9791L129.093 41.729V36.1856L124.276 36.6441Z" fill="#121212" fill-opacity="0.2"/>
<path fill-rule="evenodd" clip-rule="evenodd" d="M42.0953 14.9531C45.7084 14.9531 48.7229 17.516 49.4201 20.923C49.5197 21.4097 49.572 21.9136 49.572 22.4298V41.5699C49.572 45.6992 46.2246 49.0466 42.0953 49.0466H22.9552C22.1377 49.0466 21.3508 48.9154 20.6146 48.6729C17.6317 47.6905 15.4785 44.8817 15.4785 41.5699V22.4298C15.4785 18.3005 18.8259 14.9531 22.9552 14.9531H42.0953ZM39.0629 17.3456H42.0953C44.5732 17.3456 46.637 19.1182 47.0879 21.4644C45.6489 21.6275 44.0042 21.4764 42.2674 20.732C40.7282 20.0724 39.7072 18.8503 39.0629 17.3456ZM31.964 17.3456H36.5082C37.2631 19.6184 38.7096 21.8103 41.3249 22.9311C43.4228 23.8302 45.4153 24.0388 47.1795 23.8636V26.3082C44.7841 27.0665 42.3973 27.3734 40.4874 26.8144C39.5388 26.5367 38.4503 25.7996 37.279 24.6399C36.1236 23.4961 34.9708 22.0251 33.8821 20.4171C33.2056 19.4178 32.5614 18.3768 31.964 17.3456ZM29.2162 17.3456H26.0503C26.1945 20.053 25.5567 23.3599 23.1837 26.71C21.6115 28.9295 19.7524 30.1503 17.871 30.6955V35.465C19.0047 34.7766 20.3393 33.8364 21.9018 32.5668C25.5937 29.5671 28.5016 28.3736 30.7065 28.1553C32.8988 27.9382 34.4571 28.6986 35.1436 29.6598C35.8643 30.6687 36.2717 32.0207 36.425 33.4468C36.5802 34.8901 36.4856 36.4998 36.1216 38.0974C35.3979 41.2735 33.5609 44.5795 30.2513 46.3616C30.0711 46.4586 29.8893 46.5562 29.706 46.6541H33.4248C34.8793 44.8077 36.0431 42.9732 36.4605 41.5355C36.9316 39.9126 37.125 38.1921 37.3059 36.5835L37.3059 36.5832L37.306 36.5829C37.3709 36.0051 37.4343 35.4417 37.5083 34.9026C37.6365 33.9682 37.8134 32.9783 38.1937 32.2645C38.3949 31.8868 38.7145 31.4662 39.2291 31.2234C39.7708 30.9679 40.3343 30.9992 40.8287 31.164C42.2145 31.626 44.0568 31.7217 47.1795 30.9395V28.8054C44.7714 29.4839 42.1457 29.7926 39.8153 29.1106C38.3116 28.6705 36.8842 27.6157 35.5957 26.3402C34.2912 25.0487 33.0403 23.4413 31.9009 21.7584C30.9263 20.3188 30.0191 18.8027 29.2162 17.3456ZM47.1795 33.4001C44.2046 34.0811 42.0654 34.0526 40.2561 33.4929C40.1224 33.8059 39.9975 34.3611 39.8786 35.2279C39.8195 35.6585 39.7646 36.1481 39.7052 36.6774L39.7052 36.6778C39.5203 38.3275 39.2921 40.3633 38.7581 42.2025C38.3488 43.6123 37.4637 45.161 36.4114 46.6541H38.8185C39.2624 45.55 39.6714 44.4985 39.9925 43.6146C40.3375 42.6649 40.5537 41.9819 40.6233 41.6343C40.7553 40.9742 41.0068 40.264 41.5967 39.7605C42.2103 39.2367 42.964 39.1243 43.6701 39.1602C44.3654 39.1955 45.1807 39.3828 46.1004 39.6466C46.4348 39.7425 46.7942 39.8519 47.1795 39.9735V33.4001ZM47.1016 42.4609C46.4771 42.2581 45.9277 42.086 45.4408 41.9464C44.5521 41.6915 43.9562 41.5703 43.5486 41.5496C43.2855 41.5362 43.179 41.5686 43.1485 41.5823C43.1313 41.6025 43.0464 41.7184 42.9693 42.1035C42.8594 42.6531 42.5809 43.4966 42.2412 44.4316C41.9974 45.1028 41.7076 45.8595 41.394 46.6541H42.0953C44.5993 46.6541 46.6804 44.844 47.1016 42.4609ZM24.5437 46.6541C26.1105 45.846 27.6919 45.0224 29.117 44.2551C31.6393 42.8969 33.1667 40.2964 33.7888 37.5659C34.0977 36.2103 34.1714 34.8668 34.0462 33.7026C33.9191 32.5212 33.5976 31.6116 33.1967 31.0504C33.1356 30.9648 32.5257 30.3794 30.9422 30.5362C29.3715 30.6917 26.8961 31.5916 23.4105 34.4237C21.2286 36.1965 19.4026 37.4112 17.871 38.2142V40.9124C18.2486 40.5669 18.6749 40.2783 19.0689 40.0321C19.4703 39.7813 19.9076 39.5345 20.3374 39.2935L20.444 39.2338C20.8455 39.0087 21.244 38.7854 21.6397 38.5484C22.5053 38.0299 23.2837 37.4883 23.8822 36.8582C24.9185 35.7673 26.4142 34.4652 27.8204 33.5764C28.5141 33.1379 29.2633 32.75 29.9702 32.572C30.6335 32.4048 31.6622 32.3368 32.3789 33.1562C33.061 33.9359 33.3437 35.1054 32.8468 36.6232C32.375 38.0648 31.1898 39.8852 28.8989 42.2523C26.521 44.7095 24.1429 45.9405 22.138 46.3327C21.9119 46.377 21.6895 46.4107 21.4715 46.4342C21.9409 46.5771 22.439 46.6541 22.9552 46.6541H24.5437ZM17.871 28.164C19.0302 27.6832 20.185 26.8042 21.2313 25.3271C23.2973 22.4103 23.7966 19.5821 23.6544 17.3456H22.9552C20.1473 17.3456 17.871 19.6219 17.871 22.4298V28.164ZM43.1461 41.5834C43.1405 41.586 43.1382 41.5878 43.1385 41.588C43.1386 41.5881 43.1399 41.5876 43.1421 41.5862L43.1435 41.5852L43.1461 41.5834ZM29.0987 35.5988C27.8939 36.3603 26.5483 37.5254 25.6169 38.506C24.795 39.3712 23.7978 40.0446 22.869 40.6009C22.4422 40.8565 22.0142 41.0964 21.6176 41.3187L21.5077 41.3803C21.073 41.6241 20.6832 41.8446 20.3369 42.061C19.5901 42.5277 19.2779 42.8414 19.1801 43.0423C19.152 43.0999 19.1487 43.1329 19.1573 43.1832C19.1697 43.2548 19.2212 43.4201 19.426 43.6933L19.4459 43.7199L19.4644 43.7475C19.4655 43.7491 19.4925 43.7862 19.5781 43.8386C19.6665 43.8927 19.8034 43.9539 19.9978 44.0018C20.3885 44.0979 20.9573 44.1259 21.6787 43.9847C23.1131 43.7041 25.0716 42.7668 27.1797 40.5885C29.3748 38.3202 30.2676 36.8119 30.573 35.8789C30.7549 35.3234 30.7177 35.0225 30.6595 34.8688C30.6304 34.8742 30.5956 34.8817 30.5546 34.892C30.2092 34.979 29.7105 35.2121 29.0987 35.5988ZM30.7882 34.8576C30.7877 34.8582 30.7806 34.8583 30.7684 34.8559C30.7827 34.8558 30.7888 34.8569 30.7882 34.8576Z" fill="#121212" fill-opacity="0.2"/>
</svg>
